{"glyphs":{"0":{"ha":774,"x_min":50,"x_max":722,"o":"m 382 -17 q 140 115 231 -17 q 50 451 50 246 q 144 790 50 661 q 392 919 239 919 q 633 788 543 919 q 722 451 722 657 q 628 113 722 242 q 382 -17 535 -17 m 413 58 q 510 142 482 58 q 538 388 538 226 q 488 724 536 603 q 361 844 440 844 q 263 760 292 844 q 235 515 235 676 q 285 180 236 301 q 413 58 333 58 z "},"1":{"ha":357,"x_min":42,"x_max":304,"o":"m 49 0 q 84 106 76 56 q 92 232 92 156 l 92 621 q 83 733 92 694 q 42 818 74 772 q 260 922 178 876 l 260 232 q 267 106 260 156 q 304 0 275 56 l 49 0 z "},"3":{"ha":692,"x_min":29,"x_max":646,"o":"m 438 464 q 646 254 646 425 q 554 56 646 129 q 331 -17 463 -17 q 29 182 113 -17 l 185 264 q 276 107 232 157 q 368 57 319 57 q 441 95 414 57 q 468 200 468 133 q 424 360 468 299 q 306 421 379 421 q 231 413 268 421 l 251 490 l 328 490 q 410 540 382 490 q 439 668 439 590 q 408 806 439 757 q 317 856 376 856 q 238 820 267 856 q 210 726 210 785 q 236 601 210 667 l 57 619 l 57 664 q 144 853 57 789 q 349 918 231 918 q 542 857 464 918 q 621 688 621 796 q 438 464 621 525 z "},"4":{"ha":672,"x_min":-1,"x_max":656,"o":"m 617 215 l 540 215 l 540 200 q 547 94 540 132 q 579 0 554 56 l 339 0 q 374 96 367 57 q 382 204 382 135 l 382 215 l -1 215 l 447 911 l 540 911 l 540 351 q 656 360 603 354 l 617 215 m 157 339 l 385 342 l 385 692 l 157 339 z "},"5":{"ha":679,"x_min":38,"x_max":633,"o":"m 354 568 q 560 500 488 568 q 633 307 633 432 q 543 72 633 161 q 331 -17 453 -17 q 165 31 244 -17 q 38 182 85 78 l 189 268 q 382 57 288 57 q 474 214 474 57 q 415 387 474 318 q 258 456 357 456 q 75 404 160 456 l 115 903 l 579 903 l 575 740 q 389 751 524 751 l 171 751 l 147 508 q 354 568 236 568 z "},"6":{"ha":717,"x_min":49,"x_max":671,"o":"m 449 540 q 614 480 557 540 q 671 306 671 419 q 584 72 671 161 q 372 -17 497 -17 q 132 110 215 -17 q 49 422 49 236 q 149 783 49 651 q 418 915 250 915 q 619 875 525 915 l 583 660 q 363 843 471 843 q 260 768 286 843 q 235 506 235 693 l 235 464 q 449 540 332 540 m 400 56 q 497 231 494 56 q 468 387 497 339 q 381 435 439 435 q 238 400 303 435 q 292 144 249 233 q 400 56 335 56 z "},"8":{"ha":692,"x_min":46,"x_max":650,"o":"m 472 486 q 610 371 569 422 q 650 244 650 319 q 557 51 650 121 q 349 -18 464 -18 q 136 41 226 -18 q 46 211 46 100 q 207 433 46 342 q 63 657 63 528 q 147 844 63 769 q 364 919 232 919 q 558 858 488 919 q 628 710 628 796 q 472 486 628 569 m 333 851 q 251 819 281 851 q 222 736 222 788 q 251 647 222 686 q 361 556 281 607 l 429 513 q 471 676 471 572 q 435 803 471 754 q 333 851 399 851 m 374 53 q 458 85 426 53 q 490 171 490 118 q 369 336 490 264 l 251 407 q 208 254 208 344 q 253 106 208 158 q 374 53 299 53 z "}," ":{"ha":200,"x_min":0,"x_max":0,"o":""},"'":{"ha":256,"x_min":24,"x_max":232,"o":"m 24 951 l 232 951 q 128 618 193 768 q 24 951 63 768 z "},"(":{"ha":404,"x_min":67,"x_max":372,"o":"m 361 -204 q 147 6 228 -151 q 67 392 67 164 q 150 776 67 619 q 372 989 233 933 q 261 724 296 861 q 226 392 226 586 q 256 51 226 188 q 361 -204 286 -86 z "},")":{"ha":404,"x_min":32,"x_max":338,"o":"m 43 -204 q 148 51 118 -86 q 178 392 178 188 q 143 722 178 585 q 32 989 108 860 q 254 776 171 933 q 338 392 338 619 q 257 6 338 164 q 43 -204 176 -151 z "},"*":{"ha":469,"x_min":32,"x_max":438,"o":"m 256 697 q 415 668 340 660 l 438 581 l 351 556 q 244 681 319 629 q 300 526 253 588 l 235 464 l 171 526 q 225 679 218 592 q 118 556 149 628 l 32 581 l 54 668 q 214 697 135 658 q 54 726 129 735 l 32 814 l 118 839 q 225 714 150 765 q 169 868 217 807 l 235 931 l 299 868 q 244 715 251 803 q 351 839 321 767 l 438 814 l 415 726 q 256 697 335 736 z "},"+":{"ha":600,"x_min":71,"x_max":529,"o":"m 529 472 l 529 424 l 325 424 l 325 206 l 275 206 l 275 424 l 71 424 l 71 472 l 275 472 l 275 689 l 325 689 l 325 472 l 529 472 z "},",":{"ha":286,"x_min":35,"x_max":240,"o":"m 58 -160 q 85 -56 85 -112 q 35 99 85 31 q 210 206 100 135 q 240 85 240 151 q 185 -81 240 -8 q 58 -160 131 -153 z "},"-":{"ha":503,"x_min":71,"x_max":432,"o":"m 71 379 l 71 428 l 432 428 l 432 379 l 71 379 z "},".":{"ha":310,"x_min":50,"x_max":260,"o":"m 156 -19 q 80 12 110 -19 q 50 85 50 43 q 80 158 50 126 q 154 189 110 189 q 230 158 200 189 q 260 85 260 126 q 230 12 260 43 q 156 -19 200 -19 z "},"A":{"ha":746,"x_min":6,"x_max":740,"o":"m 740 0 l 444 0 q 461 93 461 28 q 446 208 461 150 l 422 292 l 203 292 l 179 208 q 164 103 164 156 q 183 0 164 31 l 6 0 q 113 215 63 65 l 335 910 l 418 910 l 640 215 q 740 0 689 65 m 217 339 l 410 339 l 315 682 l 217 339 z "},"C":{"ha":694,"x_min":54,"x_max":649,"o":"m 649 179 q 569 35 638 92 q 403 -21 500 -21 q 156 102 258 -21 q 54 442 54 225 q 169 785 54 650 q 474 919 283 919 q 640 889 569 919 l 604 636 q 371 829 497 829 q 256 756 290 829 q 222 544 222 683 q 302 241 222 349 q 506 133 382 133 q 649 179 575 133 z "},"I":{"ha":351,"x_min":50,"x_max":301,"o":"m 51 0 q 89 232 89 104 l 89 671 q 50 903 89 800 l 301 903 q 264 671 264 804 l 264 232 q 300 0 264 100 l 51 0 z "},"P":{"ha":688,"x_min":50,"x_max":646,"o":"m 288 325 l 263 325 l 263 232 q 300 0 263 114 l 51 0 q 88 232 88 100 l 88 671 q 50 903 88 804 l 338 903 q 646 638 646 903 q 544 406 646 486 q 288 325 442 325 m 282 849 l 267 849 q 263 671 263 758 l 263 378 l 290 378 q 417 439 374 378 q 461 617 461 500 q 282 849 461 849 z "},"T":{"ha":674,"x_min":10,"x_max":664,"o":"m 664 628 q 567 803 617 757 q 425 849 518 849 l 425 232 q 467 0 425 100 l 208 0 q 250 232 250 106 l 250 849 q 110 801 160 849 q 10 628 60 754 l 15 903 l 660 903 l 664 628 z "},"U":{"ha":749,"x_min":50,"x_max":699,"o":"m 546 903 l 699 903 q 660 674 660 800 l 660 264 q 647 167 660 213 q 603 76 633 121 q 513 6 574 32 q 369 -21 453 -21 q 229 6 288 -21 q 142 76 171 32 q 100 167 113 121 q 88 264 88 213 l 88 674 q 50 903 88 794 l 296 903 q 263 674 263 815 l 263 268 q 306 131 263 178 q 429 83 350 83 q 588 268 588 83 l 588 674 q 546 903 588 806 z "},"W":{"ha":1169,"x_min":1,"x_max":1168,"o":"m 988 903 l 1168 903 q 1060 688 1090 811 l 888 -7 l 785 -7 l 585 619 l 382 -7 l 285 -7 l 103 688 q 1 903 67 824 l 306 903 q 289 817 289 879 q 303 694 289 760 l 403 224 l 553 721 q 465 903 513 842 l 767 903 q 744 818 744 872 q 763 694 744 769 l 886 222 l 992 694 q 1004 804 1004 747 q 988 903 1004 874 z "},"[":{"ha":417,"x_min":90,"x_max":381,"o":"m 90 -193 l 90 972 l 381 972 l 381 931 l 250 931 l 250 -151 l 381 -151 l 381 -193 l 90 -193 z "},"\\":{"ha":406,"x_min":0,"x_max":406,"o":"m 349 -278 l 0 972 l 63 972 l 406 -278 l 349 -278 z "},"]":{"ha":417,"x_min":35,"x_max":325,"o":"m 35 -193 l 35 -151 l 167 -151 l 167 931 l 35 931 l 35 972 l 325 972 l 325 -193 l 35 -193 z "},"^":{"ha":378,"x_min":43,"x_max":335,"o":"m 335 661 l 285 661 l 189 882 l 93 661 l 43 661 l 160 933 l 218 933 l 335 661 z "},"_":{"ha":549,"x_min":0,"x_max":535,"o":"m 0 -149 l 0 -100 l 535 -100 l 535 -149 l 0 -149 z "},"`":{"ha":532,"x_min":97,"x_max":435,"o":"m 435 765 q 340 754 392 754 q 199 782 263 754 q 97 861 135 810 l 229 972 q 319 851 276 896 q 435 765 363 806 z "},"a":{"ha":632,"x_min":36,"x_max":601,"o":"m 601 0 l 418 0 q 392 94 396 38 q 193 -11 315 -11 q 79 30 122 -11 q 36 136 36 71 q 51 198 36 169 q 82 244 65 226 q 133 282 99 263 q 187 310 168 301 q 247 335 206 318 q 360 389 331 369 q 390 429 390 408 l 390 481 q 294 654 390 654 q 239 631 258 654 q 219 565 219 608 q 250 436 219 506 l 65 446 l 65 483 q 132 646 65 581 q 325 711 199 711 q 510 638 457 711 q 564 436 564 565 l 564 231 q 571 101 564 147 q 601 0 578 54 m 306 103 q 390 128 350 103 l 390 274 q 383 302 390 296 q 347 308 375 308 q 241 284 271 308 q 211 206 211 260 q 235 131 211 158 q 306 103 260 103 z "},"b":{"ha":663,"x_min":31,"x_max":625,"o":"m 414 710 q 567 633 510 710 q 625 403 625 557 q 541 101 625 211 q 326 -10 457 -10 q 193 57 244 -10 l 153 0 l 63 0 l 63 707 q 31 911 63 839 q 235 989 142 949 l 235 604 q 414 710 292 710 m 332 51 q 443 329 443 51 q 413 535 443 474 q 325 599 383 597 q 235 558 276 599 l 235 167 q 265 81 235 110 q 332 51 296 51 z "},"c":{"ha":557,"x_min":39,"x_max":528,"o":"m 528 171 q 459 31 513 81 q 321 -18 406 -18 q 118 79 197 -18 q 39 335 39 176 q 129 604 39 497 q 383 711 219 711 q 521 683 456 711 l 479 461 q 293 636 372 636 q 206 454 206 636 q 255 208 206 286 q 403 129 304 129 q 528 171 460 129 z "},"d":{"ha":669,"x_min":42,"x_max":631,"o":"m 631 0 l 456 0 q 429 79 439 22 q 269 -10 371 -10 q 107 74 172 -10 q 42 311 42 158 q 131 605 42 501 q 338 708 219 708 q 426 688 389 708 l 426 707 q 394 911 426 847 q 597 988 496 939 l 597 203 q 631 0 597 93 m 369 107 q 426 121 403 107 l 426 489 q 400 609 425 569 q 335 649 375 649 q 221 383 221 649 q 369 107 221 107 z "},"e":{"ha":617,"x_min":39,"x_max":576,"o":"m 576 450 l 576 349 l 211 349 q 271 188 221 243 q 426 133 321 133 q 572 175 504 133 q 499 40 560 99 q 333 -18 438 -18 q 121 81 203 -18 q 39 342 39 181 q 117 607 39 501 q 338 713 194 713 q 516 638 456 713 q 576 450 576 564 m 351 390 q 393 400 385 390 q 401 449 401 410 q 311 651 401 651 q 208 421 208 651 l 208 390 l 351 390 z "},"f":{"ha":375,"x_min":-11,"x_max":439,"o":"m 233 911 q 190 853 190 911 q 233 699 190 806 l 389 699 l 382 650 l 240 650 l 240 232 q 272 0 240 89 l 36 0 q 68 232 68 89 l 68 650 l -11 650 l -1 699 l 68 699 q 133 903 68 821 q 322 986 199 986 q 439 963 392 986 l 390 757 q 313 865 360 819 q 233 911 267 911 z "},"g":{"ha":640,"x_min":6,"x_max":667,"o":"m 617 853 q 667 842 644 853 l 639 638 q 550 706 606 706 q 485 657 506 706 q 579 471 579 589 q 500 286 579 361 q 301 211 421 211 q 218 222 260 211 q 174 158 174 189 q 187 136 174 143 q 213 128 200 129 q 253 126 226 126 l 397 126 q 455 125 433 126 q 508 117 476 124 q 558 97 540 110 q 589 56 575 83 q 603 -8 603 29 q 508 -201 603 -119 q 261 -282 414 -282 q 6 -212 117 -282 l 96 -60 q 369 -179 214 -179 q 469 -156 436 -179 q 503 -97 503 -133 q 473 -45 503 -60 q 381 -31 443 -31 l 229 -31 q 44 67 44 -31 q 168 242 44 153 q 75 326 110 272 q 40 450 40 381 q 119 635 40 560 q 317 710 199 710 q 453 678 392 710 q 519 815 479 776 q 617 853 560 853 m 321 271 q 404 425 404 271 q 378 583 404 515 q 297 651 351 651 q 217 497 217 651 q 225 391 217 439 q 258 307 233 343 q 321 271 283 271 z "},"h":{"ha":654,"x_min":38,"x_max":625,"o":"m 588 232 q 625 0 588 108 l 435 0 q 417 228 417 79 l 417 489 q 399 572 417 547 q 340 597 381 597 q 242 543 286 597 l 242 203 q 274 0 242 81 l 38 0 q 69 203 69 81 l 69 700 q 39 913 69 846 q 242 990 139 940 l 242 582 q 436 711 308 711 q 548 662 508 711 q 588 515 588 613 l 588 232 z "},"i":{"ha":322,"x_min":44,"x_max":279,"o":"m 158 761 q 78 793 110 761 q 46 872 46 825 q 78 952 46 919 q 158 985 110 985 q 241 952 208 985 q 274 872 274 919 q 241 793 274 825 q 158 761 208 761 m 44 0 q 76 194 76 89 l 76 431 q 44 635 76 568 q 247 713 161 671 l 247 194 q 279 0 247 89 l 44 0 z "},"j":{"ha":325,"x_min":-6,"x_max":275,"o":"m 160 761 q 79 793 111 761 q 47 872 47 825 q 79 952 47 919 q 160 985 111 985 q 242 952 210 985 q 275 872 275 919 q 242 793 275 825 q 160 761 210 761 m -6 -278 q 63 -131 47 -208 q 78 76 78 -53 l 78 431 q 47 635 78 568 q 250 711 151 667 l 250 113 q -6 -278 250 -214 z "},"k":{"ha":628,"x_min":38,"x_max":625,"o":"m 564 136 q 625 0 589 57 l 418 0 l 331 294 q 316 329 324 319 q 293 342 308 339 l 242 240 l 242 210 q 261 0 242 94 l 38 0 q 69 210 69 93 l 69 700 q 39 913 69 846 q 242 990 139 940 l 242 332 l 285 426 q 408 647 361 593 q 539 700 454 700 l 592 700 l 574 493 q 475 529 518 529 q 392 498 428 529 q 308 372 356 467 l 406 372 q 475 358 450 372 q 513 303 500 344 l 564 136 z "},"l":{"ha":313,"x_min":38,"x_max":274,"o":"m 38 0 q 69 203 69 81 l 69 700 q 39 913 69 846 q 242 990 139 940 l 242 203 q 274 0 242 81 l 38 0 z "},"m":{"ha":1008,"x_min":44,"x_max":979,"o":"m 942 232 q 979 0 942 101 l 788 0 q 769 229 769 79 l 769 489 q 751 572 769 547 q 694 597 733 597 q 593 542 640 597 q 594 515 594 533 l 594 232 q 632 0 594 107 l 422 0 l 422 489 q 404 572 422 547 q 347 597 386 597 q 249 543 294 597 l 249 203 q 281 0 249 76 l 44 0 q 76 203 76 81 l 76 438 q 44 635 76 569 q 218 714 151 681 q 249 583 246 653 q 443 711 315 711 q 590 574 567 711 q 789 711 657 711 q 902 661 863 711 q 942 515 942 611 l 942 232 z "},"n":{"ha":661,"x_min":44,"x_max":632,"o":"m 594 232 q 632 0 594 108 l 440 0 q 422 228 422 79 l 422 489 q 404 572 422 547 q 347 597 386 597 q 249 543 294 597 l 249 203 q 281 0 249 76 l 44 0 q 76 203 76 81 l 76 438 q 44 635 76 569 q 218 714 151 681 q 249 583 246 653 q 443 711 315 711 q 555 661 515 711 q 594 515 594 611 l 594 232 z "},"o":{"ha":665,"x_min":40,"x_max":625,"o":"m 326 -17 q 120 83 200 -17 q 40 346 40 183 q 122 614 40 514 q 339 714 204 714 q 544 614 464 714 q 625 350 625 514 q 543 83 625 182 q 326 -17 461 -17 m 346 46 q 440 292 440 46 q 409 546 440 440 q 319 651 378 651 q 225 404 225 651 q 256 151 225 256 q 346 46 288 46 z "},"p":{"ha":663,"x_min":31,"x_max":625,"o":"m 414 710 q 567 633 510 710 q 625 403 625 557 q 543 99 625 208 q 335 -10 461 -10 q 235 25 274 -10 l 235 -68 q 268 -278 235 -190 l 31 -278 q 63 -68 63 -189 l 63 408 q 31 636 63 558 q 204 714 114 669 q 233 600 229 664 q 414 710 290 710 m 332 51 q 443 329 443 51 q 325 599 443 599 q 235 558 276 599 l 235 167 q 265 81 235 110 q 332 51 296 51 z "},"q":{"ha":660,"x_min":42,"x_max":629,"o":"m 394 -278 q 426 -90 426 -185 l 426 75 q 269 -10 368 -10 q 107 74 172 -10 q 42 311 42 158 q 131 605 42 501 q 338 708 219 708 q 468 651 419 708 q 597 714 522 675 l 597 -90 q 603 -185 597 -150 q 629 -278 608 -221 l 394 -278 m 369 107 q 426 121 403 107 l 426 489 q 400 609 425 569 q 335 649 375 649 q 221 383 221 649 q 369 107 221 107 z "},"r":{"ha":478,"x_min":24,"x_max":464,"o":"m 406 711 q 464 704 439 711 l 435 461 q 306 574 360 574 q 257 530 269 574 q 244 390 244 486 l 244 210 q 278 0 244 88 l 40 0 q 72 210 72 89 l 72 408 q 24 632 72 542 q 197 714 131 678 q 242 567 225 672 q 303 681 264 650 q 406 711 342 711 z "},"s":{"ha":540,"x_min":17,"x_max":511,"o":"m 232 633 q 185 619 203 633 q 168 579 168 604 q 199 518 168 546 q 307 444 229 490 l 388 397 q 511 208 511 325 q 442 48 511 113 q 274 -17 372 -17 q 121 28 189 -17 q 17 143 53 74 l 139 242 q 336 58 232 58 q 384 75 365 58 q 403 122 403 92 q 379 183 403 156 q 299 242 356 210 l 185 306 q 111 354 138 333 q 63 411 85 375 q 40 492 40 447 q 117 647 40 585 q 328 711 194 710 q 483 685 419 711 l 460 461 q 356 586 418 539 q 232 633 293 633 z "},"t":{"ha":421,"x_min":4,"x_max":415,"o":"m 256 233 q 325 122 256 122 q 411 158 364 122 q 359 36 411 88 q 231 -15 307 -15 q 124 31 164 -15 q 83 175 83 78 l 83 650 l 4 650 l 11 699 l 83 699 q 76 811 81 768 q 256 900 164 844 l 256 699 l 415 699 l 408 650 l 256 650 l 256 233 z "},"u":{"ha":651,"x_min":35,"x_max":615,"o":"m 615 0 l 440 0 q 413 106 421 38 q 222 -12 344 -12 q 67 183 67 -12 l 67 429 q 35 633 67 556 q 239 711 168 679 l 239 210 q 318 101 239 101 q 411 147 371 101 l 411 431 q 386 635 411 571 q 583 713 496 671 l 583 213 q 615 0 583 93 z "},"v":{"ha":622,"x_min":-8,"x_max":631,"o":"m 463 699 l 631 699 q 589 638 608 674 q 559 575 569 603 q 525 483 549 547 l 354 0 l 263 0 l 90 483 q 80 511 88 490 q 70 538 72 532 q 61 563 68 544 q 51 587 54 581 q 43 608 49 593 q 34 628 38 622 q 25 647 31 635 q 15 665 19 658 q 3 681 10 672 q -8 699 -3 690 l 268 699 q 257 619 257 672 q 275 490 257 549 l 367 185 l 461 490 q 478 601 478 544 q 463 699 478 661 z "},"w":{"ha":976,"x_min":-8,"x_max":985,"o":"m 826 699 l 985 699 q 881 483 921 621 l 733 -4 l 640 -4 l 482 429 l 325 -4 l 233 -4 l 88 483 q 62 563 71 538 q 34 628 53 589 q -8 699 15 668 l 247 699 q 244 639 243 671 q 272 490 250 575 l 347 194 l 453 511 q 378 699 406 638 l 646 699 q 629 608 629 654 q 647 490 629 549 l 739 185 l 817 490 q 838 622 838 567 q 826 699 838 668 z "},"x":{"ha":621,"x_min":0,"x_max":621,"o":"m 0 0 q 100 135 51 53 l 225 335 l 90 575 q 3 699 51 644 l 292 699 q 282 653 282 679 q 297 579 282 615 l 364 433 l 433 565 q 453 639 453 603 q 436 699 453 674 l 613 699 q 597 685 604 693 q 584 672 590 678 q 570 657 578 667 q 558 642 563 647 q 546 623 554 636 q 534 605 538 610 q 521 585 531 600 q 508 564 511 569 l 390 376 l 531 124 q 621 0 582 31 l 326 0 q 342 58 342 19 q 328 119 342 92 l 251 279 l 171 119 q 157 60 157 90 q 172 0 157 25 l 0 0 z "},"y":{"ha":629,"x_min":-8,"x_max":639,"o":"m 471 699 l 639 699 q 532 483 579 629 l 372 -3 q 299 -187 332 -131 q 230 -261 265 -244 q 125 -278 194 -278 l 72 -278 l 60 -67 q 194 -108 133 -108 q 308 -24 278 -108 l 322 14 l 243 14 l 92 483 q -8 699 40 638 l 271 699 q 260 618 260 672 q 278 490 260 550 l 372 171 l 469 490 q 485 604 485 538 q 471 699 485 671 z "},"z":{"ha":564,"x_min":11,"x_max":547,"o":"m 218 54 q 408 102 340 60 q 532 239 476 144 l 531 0 l 147 0 q 11 -4 57 0 l 333 643 q 153 601 217 639 q 42 460 90 563 l 44 699 l 415 699 q 531 701 504 699 l 547 703 l 218 54 z "},"’":{"ha":267,"x_min":25,"x_max":231,"o":"m 49 603 q 75 706 75 650 q 25 861 75 793 q 200 968 90 897 q 231 847 231 914 q 176 682 231 754 q 49 603 121 610 z "},"‚":{"ha":286,"x_min":35,"x_max":240,"o":"m 58 -160 q 85 -56 85 -112 q 35 99 85 31 q 210 206 100 135 q 240 85 240 151 q 185 -81 240 -8 q 58 -160 131 -153 z "},"“":{"ha":506,"x_min":33,"x_max":475,"o":"m 215 963 q 189 860 189 915 q 239 704 189 772 q 64 597 138 646 q 33 719 33 654 q 89 883 33 811 q 215 963 144 956 m 451 963 q 425 860 425 915 q 475 704 425 772 q 300 597 372 646 q 269 719 269 654 q 325 883 269 811 q 451 963 381 956 z "},"”":{"ha":503,"x_min":25,"x_max":467,"o":"m 49 603 q 75 706 75 650 q 25 861 75 793 q 200 968 90 897 q 231 847 231 914 q 176 682 231 754 q 49 603 121 610 m 285 603 q 311 706 311 650 q 261 861 311 793 q 436 968 326 897 q 467 847 467 914 q 412 682 467 754 q 285 603 357 610 z "},"ﬁ":{"ha":676,"x_min":-11,"x_max":633,"o":"m 399 0 q 425 92 419 57 q 431 188 431 128 l 431 431 q 406 650 431 574 l 240 650 l 240 232 q 272 0 240 89 l 36 0 q 68 232 68 89 l 68 650 l -11 650 l -1 699 l 69 699 q 90 797 72 750 q 142 889 107 844 q 240 960 176 933 q 389 986 304 986 q 568 949 503 986 l 496 760 q 407 865 464 819 q 297 911 350 911 q 215 804 215 911 q 235 699 215 765 l 467 699 q 601 711 550 699 l 601 188 q 607 92 601 128 q 633 0 613 57 l 399 0 z "},"ﬂ":{"ha":675,"x_min":-11,"x_max":636,"o":"m 397 0 q 431 203 431 85 l 431 700 q 418 856 431 810 q 296 913 358 913 q 215 806 215 913 q 235 699 215 761 l 375 699 l 350 650 l 240 650 l 240 232 q 272 0 240 89 l 36 0 q 68 232 68 89 l 68 650 l -11 650 l -1 699 l 68 699 q 161 910 75 833 q 381 986 247 986 q 533 958 468 986 q 604 990 557 968 l 604 203 q 636 0 604 81 l 397 0 z "}}}
